<svg id="Layer_1" viewBox="0 0 24 24" xmlns="http://www.w3.org/2000/svg" data-name="Layer 1"><path d="m9 22c0 1.105-.895 2-2 2s-2-.895-2-2 .895-2 2-2 2 .895 2 2zm8-2c-1.105 0-2 .895-2 2s.895 2 2 2 2-.895 2-2-.895-2-2-2zm3.5-13c1.93 0 3.5-1.57 3.5-3.5s-1.57-3.5-3.5-3.5-3.5 1.57-3.5 3.5 1.57 3.5 3.5 3.5zm-.757 1.942-1.653 6.058h-10.685c-.25 0-.463-.186-.495-.434l-.876-6.566h11.31c-1.02-.717-1.783-1.77-2.131-3h-9.579l-.262-1.963c-.231-1.731-1.723-3.037-3.47-3.037h-1.902v3h1.902c.25 0 .464.187.496.434l1.537 11.527c.23 1.732 1.722 3.039 3.47 3.039h12.966l2.634-9.607c-.752.386-1.602.607-2.505.607-.258 0-.509-.024-.757-.058z"/></svg>